<!-- Apple 로고 (공식 디자인) -->
<svg width="24" height="24" viewBox="0 0 24 24" fill="none" xmlns="http://www.w3.org/2000/svg">
  <path d="M17.569 12.5238C17.5468 10.0905 19.4854 8.91429 19.5742 8.8619C18.4543 7.16667 16.7161 6.94286 16.1172 6.91905C14.619 6.76667 13.1653 7.82857 12.4033 7.82857C11.6302 7.82857 10.4437 6.93095 9.17275 6.95476C7.54598 6.97857 6.02085 7.92857 5.18036 9.39524C3.45455 12.3714 4.73089 16.7143 6.39899 19.0952C7.23312 20.2714 8.21978 21.5952 9.48956 21.5476C10.7372 21.4952 11.1991 20.7286 12.6972 20.7286C14.1842 20.7286 14.6127 21.5476 15.9046 21.519C17.2409 21.4952 18.0936 20.3333 18.9054 19.1476C19.8698 17.7952 20.2761 16.4667 20.2983 16.3952C20.2649 16.3857 17.5935 15.3429 17.569 12.5238ZM15.0861 5.35714C15.7593 4.53333 16.2212 3.40952 16.0878 2.26667C15.1346 2.30952 13.9592 2.9 13.2638 3.7C12.6528 4.38095 12.1021 5.53333 12.2467 6.63333C13.3221 6.71905 14.4129 6.16667 15.0861 5.35714Z" fill="currentColor"/>
</svg>
